<svg width="30" height="31" viewBox="0 0 30 31" fill="none" xmlns="http://www.w3.org/2000/svg">
<path d="M17.1649 24.2962V7.74246C17.1649 6.42324 16.6959 5.97846 15.416 5.97846H11.5431V7.82718H11.7731C12.6566 7.82718 12.8291 8.02687 12.8291 9.09193V24.2962H17.1649ZM19.0772 24.2962H23.3797V11.4036C23.3797 10.1086 22.8805 9.64261 21.6188 9.64261H19.0772V24.2962ZM10.9289 24.2962V9.64261H8.37821C7.11649 9.64261 6.6233 10.1086 6.6233 11.4036V24.2962H10.9289ZM27.4523 15.8816C27.4523 23.1766 22.2088 28.4807 15.0015 28.4807C7.79426 28.4807 2.54766 23.1766 2.54766 15.8816C2.54766 8.58663 7.79426 3.28255 15.0015 3.28255C22.2088 3.28255 27.4523 8.61991 27.4523 15.8816ZM30 15.8816C30 7.30373 23.5825 0.880127 15.0015 0.880127C6.42058 0.880127 0 7.30373 0 15.8816C0 24.4595 6.41453 30.8801 15.0015 30.8801C23.5885 30.8801 30 24.4717 30 15.8816Z" fill="white"/>
</svg>
