<svg width="144" height="37" viewBox="0 0 144 37" fill="none" xmlns="http://www.w3.org/2000/svg">
<g clip-path="url(#clip0_6004_7509)">
<path d="M13.1148 19.297H8.2008L10.8144 10.7614L13.1112 19.297H13.1148ZM5.652 28.7074L7.326 23.0986H13.9464L15.516 28.7074H21.6504L15.5556 7.30896C15.2064 6.04536 14.4396 5.46216 13.1112 5.46216H4.4352V7.48176H5.166C6.0732 7.48176 6.5628 7.83456 6.5628 8.52936C6.5628 8.98296 6.462 9.36456 6.102 10.4086L0 28.7074H5.652Z" fill="white"/>
<path d="M28.7207 28.7074V7.24416C28.7207 6.12456 28.0655 5.46216 26.9819 5.46216H21.6179V7.48176H21.9671C22.8707 7.48176 23.2523 7.86696 23.2523 8.77776V28.7074H28.7207Z" fill="white"/>
<path d="M38.0231 28.7074V7.24416C38.0231 6.12456 37.3571 5.46216 36.2807 5.46216H30.9167V7.48176H31.2587C32.1695 7.48176 32.5511 7.86696 32.5511 8.77776V28.7074H38.0231Z" fill="white"/>
<path d="M47.5669 7.58257C47.5669 6.02377 46.4149 5.08057 44.4313 5.08057C42.4477 5.08057 41.2885 6.02377 41.2885 7.58257C41.2885 9.14137 42.4801 10.0954 44.4313 10.0954C46.3825 10.0954 47.5669 9.16297 47.5669 7.58257ZM47.4625 28.7074V13.0582C47.4625 11.9422 46.7965 11.2834 45.7165 11.2834H40.4209V13.267H40.7341C41.6413 13.267 42.0229 13.6846 42.0229 14.5918V28.7074H47.4661H47.4625Z" fill="white"/>
<path d="M59.4432 20.341V23.7286C58.5324 24.6718 57.4236 25.2334 56.484 25.2334C55.5444 25.2334 55.1592 24.751 55.1592 23.4442C55.1592 22.1374 55.4328 21.5686 56.4084 21.187C57.1392 20.8702 58.0824 20.593 59.4432 20.3374M52.0848 16.273C53.8992 15.4018 55.8864 14.9122 57.4524 14.9122C58.9212 14.9122 59.4432 15.4342 59.4432 16.9606V17.3494C57.2148 17.7022 56.5164 17.8462 55.26 18.1234C54.5364 18.2926 53.8632 18.5014 53.2008 18.7822C51.0012 19.6642 49.9644 21.3634 49.9644 23.9734C49.9644 27.2854 51.39 28.8838 54.3528 28.8838C55.4328 28.8838 56.412 28.6786 57.2832 28.333C58.0464 27.9946 58.5 27.7066 59.6196 26.8354V27.0766C59.6196 28.1566 60.174 28.711 61.2576 28.711H66.24V26.8354H65.9952C65.0556 26.8354 64.71 26.4142 64.71 25.3018V17.0038C64.71 12.5794 63.1764 11.0386 58.7448 11.0386C57.3192 11.0386 55.926 11.2186 54.5688 11.5318C53.2044 11.8414 52.5024 12.1222 50.8752 12.925L52.0848 16.273Z" fill="white"/>
<path d="M74.178 28.7073V16.9281C75.0888 15.9165 76.0248 15.4593 77.1084 15.4593C78.264 15.4593 78.5376 15.9165 78.5376 17.6661V28.7073H83.9736V16.8597C83.9736 14.1021 83.772 13.2309 82.8972 12.2949C82.1628 11.4885 81.0504 11.0745 79.614 11.0745C77.4864 11.0745 75.9888 11.7333 73.9764 13.6161V12.9213C73.9764 11.8377 73.4112 11.2833 72.2952 11.2833H67.1328V13.2669H67.446C68.3532 13.2669 68.7384 13.6845 68.7384 14.5917V28.7073H74.1744H74.178Z" fill="white"/>
<path d="M100.105 25.0496H92.5057L99.7561 14.8796V11.2832H88.3981C87.1093 11.2832 86.5153 11.8736 86.5153 13.166V16.3304H88.5349V16.0208C88.5349 15.2216 88.9525 14.8364 89.8201 14.8364H93.7297L86.4109 25.1216V28.7072H100.109V25.0496H100.105Z" fill="white"/>
<path d="M128.642 28.2645V8.56885C128.642 6.99925 128.084 6.47005 126.561 6.47005H121.953V8.66965H122.227C123.278 8.66965 123.483 8.90725 123.483 10.1745V28.2645H128.642ZM130.917 28.2645H136.037V12.9249C136.037 11.3841 135.443 10.8297 133.941 10.8297H130.917V28.2645ZM121.223 28.2645V10.8297H118.188C116.687 10.8297 116.1 11.3841 116.1 12.9249V28.2645H121.223ZM140.882 18.2529C140.882 26.9325 134.643 33.2433 126.068 33.2433C117.493 33.2433 111.251 26.9325 111.251 18.2529C111.251 9.57325 117.493 3.26245 126.068 3.26245C134.643 3.26245 140.882 9.61285 140.882 18.2529ZM143.913 18.2529C143.913 8.04685 136.278 0.404053 126.068 0.404053C115.859 0.404053 108.219 8.04685 108.219 18.2529C108.219 28.4589 115.851 36.0981 126.068 36.0981C136.285 36.0981 143.913 28.4733 143.913 18.2529Z" fill="white"/>
</g>
<defs>
<clipPath id="clip0_6004_7509">
<rect width="144" height="36" fill="white" transform="translate(0 0.404053)"/>
</clipPath>
</defs>
</svg>
