<svg width="19" height="16" viewBox="0 0 19 16" fill="none" xmlns="http://www.w3.org/2000/svg">
<g clip-path="url(#clip0_6067_11095)">
<path d="M12.9322 14.9177C14.6833 14.9177 16.1029 13.4981 16.1029 11.7469C16.1029 9.99581 14.6833 8.57623 12.9322 8.57623C11.1811 8.57623 9.76147 9.99581 9.76147 11.7469C9.76147 13.4981 11.1811 14.9177 12.9322 14.9177Z" stroke="white" stroke-width="1.0764" stroke-linecap="round" stroke-linejoin="round"/>
<path d="M5.43829 7.42376C7.18943 7.42376 8.609 6.00419 8.609 4.25305C8.609 2.50191 7.18943 1.08234 5.43829 1.08234C3.68715 1.08234 2.26758 2.50191 2.26758 4.25305C2.26758 6.00419 3.68715 7.42376 5.43829 7.42376Z" stroke="white" stroke-width="1.0764" stroke-linecap="round" stroke-linejoin="round"/>
<path d="M17.8322 11.7469H16.1028" stroke="white" stroke-width="1.0764" stroke-linecap="round" stroke-linejoin="round"/>
<path d="M0.538086 4.25305H2.2675" stroke="white" stroke-width="1.0764" stroke-linecap="round" stroke-linejoin="round"/>
<path d="M9.76175 11.7469H0.538086" stroke="white" stroke-width="1.0764" stroke-linecap="round" stroke-linejoin="round"/>
<path d="M8.60864 4.25305H17.8323" stroke="white" stroke-width="1.0764" stroke-linecap="round" stroke-linejoin="round"/>
</g>
<defs>
<clipPath id="clip0_6067_11095">
<rect width="18.3705" height="14.9117" fill="white" transform="translate(0 0.544128)"/>
</clipPath>
</defs>
</svg>
