<svg width="57" height="58" viewBox="0 0 57 58" fill="none" xmlns="http://www.w3.org/2000/svg">
<path d="M5.1083 45.7729C3.21301 41.3708 2.49866 36.3405 3.36446 31.0811C5.20494 19.9001 14.1223 11.0303 25.3741 9.69052C41.1602 7.81082 54.1334 20.0898 54.1334 35.5C54.1334 39.2916 53.3219 42.8934 51.863 46.1416C51.1965 47.6253 49.6318 48.5 48.0053 48.5H9.15499C7.37822 48.5 5.81096 47.4049 5.1083 45.7729Z" stroke="#FAB600" stroke-width="2.5" stroke-miterlimit="10" stroke-linecap="round" stroke-linejoin="round"/>
<path d="M7.33347 35.5H3.01367" stroke="#FAB600" stroke-width="2.5" stroke-miterlimit="10" stroke-linecap="round" stroke-linejoin="round"/>
<path d="M54.1333 35.5H49.8135" stroke="#FAB600" stroke-width="2.5" stroke-miterlimit="10" stroke-linecap="round" stroke-linejoin="round"/>
<path d="M46.8338 17.24L43.8989 20.1747" stroke="#FAB600" stroke-width="2.5" stroke-miterlimit="10" stroke-linecap="round" stroke-linejoin="round"/>
<path d="M28.5737 9.50659V13.8264" stroke="#FAB600" stroke-width="2.5" stroke-miterlimit="10" stroke-linecap="round" stroke-linejoin="round"/>
<path d="M10.3066 17.2329L13.2482 20.1745" stroke="#FAB600" stroke-width="2.5" stroke-miterlimit="10" stroke-linecap="round" stroke-linejoin="round"/>
<path d="M28.5667 39.8334C30.96 39.8334 32.9001 37.8933 32.9001 35.5001C32.9001 33.1068 30.96 31.1667 28.5667 31.1667C26.1735 31.1667 24.2334 33.1068 24.2334 35.5001C24.2334 37.8933 26.1735 39.8334 28.5667 39.8334Z" stroke="#FAB600" stroke-width="2.5" stroke-miterlimit="10" stroke-linecap="round" stroke-linejoin="round"/>
<path d="M37.7548 26.312L31.6309 32.4359" stroke="#FAB600" stroke-width="2.5" stroke-miterlimit="10" stroke-linecap="round" stroke-linejoin="round"/>
</svg>
