<svg width="26" height="26" viewBox="0 0 26 26" fill="none" xmlns="http://www.w3.org/2000/svg">
<g clip-path="url(#clip0_6004_8330)">
<mask id="mask0_6004_8330" style="mask-type:luminance" maskUnits="userSpaceOnUse" x="0" y="0" width="26" height="26">
<rect width="26" height="26" fill="white"/>
</mask>
<g mask="url(#mask0_6004_8330)">
<path fill-rule="evenodd" clip-rule="evenodd" d="M0 0V26H26V0H0Z" fill="#5196ED"/>
<mask id="mask1_6004_8330" style="mask-type:luminance" maskUnits="userSpaceOnUse" x="0" y="0" width="26" height="26">
<path fill-rule="evenodd" clip-rule="evenodd" d="M0 0V26H26V0H0Z" fill="white"/>
</mask>
<g mask="url(#mask1_6004_8330)">
<path d="M26 12.4583C26 22.0321 20.1798 29.7917 13 29.7917C5.82019 29.7917 0 22.0314 0 12.4583C0 2.886 5.82019 -4.875 13 -4.875C20.1798 -4.875 26 2.886 26 12.4583Z" fill="#435ABA"/>
<path d="M25.9202 10.5488C25.8168 11.6805 25.6824 12.8043 25.5167 13.9252C25.4777 14.1823 25.436 14.4445 25.332 14.6676C24.9962 15.3964 24.0829 15.5798 24.007 16.4299C23.9464 17.0842 24.4496 17.8375 24.1137 18.32C23.9122 18.6067 23.5087 18.567 23.3689 18.9129C23.3153 19.0436 23.3153 19.201 23.2736 19.3397C23.2341 19.474 23.1192 19.6005 23.0179 19.5333C23.1246 19.8366 23.0494 20.202 22.8977 20.4671C22.7466 20.7279 22.5304 20.9084 22.3181 21.0839C21.8761 21.4493 21.2927 21.8119 20.8724 21.3973C20.5924 21.1207 20.5252 20.61 20.4775 20.15C20.3827 19.2278 20.2869 18.3005 20.315 17.3716C20.3286 16.905 20.3687 16.4118 20.2035 16.0037C20.0995 15.7502 19.9283 15.5595 19.8194 15.314C19.7105 15.0713 19.6824 14.7116 19.8476 14.5296C19.9094 14.4617 19.9906 14.4242 20.0269 14.3346C20.0968 14.1627 19.957 13.9649 19.8195 13.8948C19.203 13.5691 18.5113 14.1591 17.8592 14.0024C17.1501 13.8305 16.7303 12.8562 16.5007 11.9448C16.4075 11.5678 16.33 11.1561 16.4194 10.7799C16.4866 10.499 16.6377 10.2751 16.7861 10.0591C17.24 9.39322 17.6907 8.72879 18.1452 8.06437C17.89 7.98928 17.7167 7.64546 17.6745 7.30245C17.6355 6.95578 17.6999 6.60404 17.7644 6.26753H18.7752C18.7075 5.83778 18.6403 5.4052 18.5731 4.97545C18.9544 4.85987 19.3498 4.73637 19.6608 4.41862C19.9706 4.1052 20.1753 3.53753 20.0329 3.05145C19.9376 2.71921 19.6943 2.41662 19.7756 2.07645C19.8763 1.64745 20.4055 1.64745 20.5367 1.22854C20.5783 1.09129 20.5708 0.929539 20.613 0.792295C20.691 0.54604 20.9066 0.452873 21.0859 0.33655C21.2625 0.220972 21.4505 -0.0144498 21.3887 -0.26795L21.3633 -0.260705C21.4337 -0.36545 21.5036 -0.470127 21.5788 -0.563293C23.9513 2.21728 25.5589 6.13462 25.9202 10.5488Z" fill="#4FAF9A"/>
<path d="M17.5659 -3.77215C17.5345 -3.67898 17.4987 -3.59306 17.4478 -3.5114C17.2745 -3.22032 17.0058 -3.05132 16.8341 -2.75666C16.5043 -2.17382 16.6467 -1.27824 16.3049 -0.702656C15.8624 0.0477559 14.9383 -0.228901 14.3279 0.272344C13.9243 0.600933 13.7066 1.28343 13.8095 1.90026C13.6329 2.10609 13.3474 1.98983 13.1736 1.78109C12.9975 1.57167 12.8827 1.28418 12.6974 1.08992C12.4705 0.847256 12.1433 0.7505 12.003 0.406677C11.7284 -0.257745 12.4233 -1.06449 12.224 -1.77441C11.964 -1.778 11.7928 -2.13624 11.7116 -2.46849C11.633 -2.79708 11.58 -3.17557 11.3758 -3.38641C11.0313 -3.74608 10.5356 -3.41749 10.1039 -3.4615C10.0119 -3.46942 9.91382 -3.50625 9.86614 -3.60741C9.81576 -3.71866 9.84339 -3.86166 9.87482 -3.98367C9.90839 -4.12159 9.942 -4.26025 9.97288 -4.39824H9.97557C10.9446 -4.70882 11.9586 -4.872 13.0008 -4.872C14.6084 -4.87423 16.1456 -4.48572 17.5659 -3.77215Z" fill="#4FAF9A"/>
<path d="M13.793 15.9113C13.7286 16.445 13.3028 16.7736 13.1631 17.282C13.0168 17.7934 13.1208 18.5481 12.74 18.7532C12.5889 18.8319 12.4205 18.7785 12.2612 18.8204C11.7537 18.9511 11.6589 19.8661 11.3003 20.363C11.1773 20.5306 11.023 20.6505 10.8691 20.7696C10.5723 20.9971 10.2754 21.2254 9.97535 21.4529C9.52467 21.7966 9.01767 22.2596 9.00091 22.9508C8.99822 23.0851 9.01229 23.2187 9.00635 23.3502C9.00091 23.5444 8.95054 23.7264 8.90072 23.9063C8.76316 24.4032 8.62285 24.9037 8.48528 25.4042C8.33471 25.4641 8.19171 25.2663 8.14403 25.064C8.09909 24.8625 8.10772 24.6423 8.04059 24.4516C7.98427 24.2942 7.88134 24.175 7.81416 24.0255C7.66521 23.6933 7.70203 23.2751 7.74971 22.8902C7.94852 21.2356 8.2004 19.5933 8.5059 17.9646C8.54759 17.7487 8.58446 17.5017 8.48584 17.3225C8.4279 17.2069 8.32659 17.1463 8.2459 17.0654C7.9404 16.7477 7.91821 16.1576 7.75571 15.6874C7.5764 15.1718 7.19833 14.7023 7.28771 14.1448C7.34946 13.7793 7.61327 13.4875 7.60458 13.1134C7.59102 12.6165 7.15065 12.397 6.85114 12.1052C6.59058 11.8517 6.39995 11.4776 6.1172 11.2768C5.93251 11.1497 5.72232 11.1049 5.52082 11.0298C4.83995 10.7792 4.23814 10.171 3.87632 9.36435C3.76745 9.12169 3.66401 8.84144 3.47063 8.72593C3.35307 8.65084 3.2182 8.65084 3.09582 8.59884C2.53301 8.35617 2.52651 7.27284 2.13707 6.67484C2.04226 6.52967 1.92475 6.4141 1.83482 6.2646C1.70319 6.04001 1.64362 5.75326 1.59919 5.47593C1.54287 5.12567 1.50387 4.76743 1.48438 4.4121C2.60166 1.56652 4.29872 -0.812482 6.36572 -2.44757C6.53691 -2.22732 6.71078 -2.00774 6.88141 -1.78748C7.06935 -1.54482 7.33859 -1.28698 7.56771 -1.45456C7.64353 -1.51089 7.69934 -1.60406 7.77246 -1.66331C7.96315 -1.81714 8.25402 -1.63372 8.28434 -1.33905C8.31577 -1.04438 8.07416 -0.76055 7.85915 -0.839295C7.8754 -0.447128 8.09965 -0.08455 8.38296 0.0122052C8.00215 0.426783 7.44477 -0.148128 6.95458 -0.0773728C6.44215 -0.00228422 6.15346 0.953215 6.4779 1.47972C6.82296 2.03655 7.56771 1.99897 7.80552 2.64897C7.85915 2.79488 7.87809 2.96314 7.95177 3.09673C8.02165 3.22747 8.18146 3.30256 8.2654 3.18556C8.24859 2.45756 8.29896 1.72956 8.41871 1.02031C8.44146 0.882393 8.47502 0.732893 8.56227 0.654893C8.63214 0.598559 8.71933 0.594226 8.80007 0.605804C9.30707 0.678049 9.75827 1.22622 9.85307 1.89355C10.0042 1.72963 10.1049 1.48696 10.1304 1.22913C10.548 2.02504 11.0214 2.77254 11.5398 3.4507C11.3036 3.70204 10.9738 3.73163 10.7078 3.92162C10.4045 4.14187 10.2149 4.55286 10.021 4.93271C9.46419 6.03121 8.77732 7.01778 7.99951 7.84545C7.90688 7.94728 7.80613 8.04837 7.75845 8.19787C7.66313 8.49179 7.79801 8.89913 7.62682 9.13028C7.26013 8.34236 6.44489 7.98771 5.80088 8.33512C5.69201 8.39504 5.58582 8.47236 5.50676 8.58862C5.24676 8.98078 5.41682 9.64954 5.74238 9.93703C6.06957 10.2274 6.48445 10.2476 6.87663 10.2541C6.76182 10.7842 7.06188 11.3447 7.43726 11.5729C7.81532 11.7968 8.24382 11.7736 8.65819 11.752C9.06987 11.7295 9.50375 11.718 9.871 11.965C10.0861 12.1102 10.2632 12.3305 10.4452 12.5392C11.0919 13.2824 11.8286 13.8847 12.6184 14.3166C12.8989 14.474 13.1904 14.6084 13.4282 14.8583C13.6641 15.1161 13.8434 15.5119 13.793 15.9113Z" fill="#4FAF9A"/>
</g>
</g>
</g>
<defs>
<clipPath id="clip0_6004_8330">
<rect width="26" height="26" rx="13" fill="white"/>
</clipPath>
</defs>
</svg>
