<svg width="17" height="16" viewBox="0 0 17 16" fill="none" xmlns="http://www.w3.org/2000/svg">
<path d="M12.0061 0.928528C14.3928 0.928528 16.3276 2.89281 16.3276 5.64281C16.3276 11.1428 10.4347 14.2857 8.47042 15.4642C6.50614 14.2857 0.613281 11.1428 0.613281 5.64281C0.613281 2.89281 2.57757 0.928528 4.93471 0.928528C6.39611 0.928528 7.68471 1.71424 8.47042 2.49996C9.25614 1.71424 10.5447 0.928528 12.0061 0.928528ZM9.2042 13.1887C9.89689 12.7523 10.5211 12.3178 11.1064 11.8522C13.4469 9.99017 14.7561 7.95556 14.7561 5.64281C14.7561 3.78912 13.5485 2.49996 12.0061 2.49996C11.1608 2.49996 10.2456 2.94711 9.58158 3.61112L8.47042 4.72229L7.35927 3.61112C6.69524 2.94711 5.78006 2.49996 4.93471 2.49996C3.40969 2.49996 2.18471 3.80149 2.18471 5.64281C2.18471 7.95556 3.49392 9.99017 5.83446 11.8522C6.41971 12.3178 7.04396 12.7523 7.73665 13.1887C7.97118 13.3364 8.20415 13.4787 8.47042 13.6376C8.7367 13.4787 8.96967 13.3364 9.2042 13.1887Z" fill="#003781"/>
</svg>
