<svg xmlns="http://www.w3.org/2000/svg" width="19" height="16" fill="none" viewBox="0 0 19 16"><g stroke="#fff" stroke-linecap="round" stroke-linejoin="round" stroke-width="1.0764" clip-path="url(#clip0_6067_11095)"><path d="M12.932 14.918C14.683 14.918 16.103 13.498 16.103 11.747 16.103 9.996 14.683 8.576 12.932 8.576 11.181 8.576 9.761 9.996 9.761 11.747 9.761 13.498 11.181 14.918 12.932 14.918ZM5.438 7.424C7.189 7.424 8.609 6.004 8.609 4.253 8.609 2.502 7.189 1.082 5.438 1.082 3.687 1.082 2.268 2.502 2.268 4.253 2.268 6.004 3.687 7.424 5.438 7.424ZM17.832 11.747H16.103M.538 4.253H2.268M9.762 11.747H.538M8.609 4.253H17.832"/></g><defs><clipPath id="clip0_6067_11095"><path fill="#fff" d="M0 0H18.3705V14.9117H0z" transform="translate(0 .544)"/></clipPath></defs></svg>