<svg xmlns="http://www.w3.org/2000/svg" width="26" height="26" fill="none" viewBox="0 0 26 26"><g clip-path="url(#clip0_6004_8330)"><mask id="mask0_6004_8330" width="26" height="26" x="0" y="0" maskUnits="userSpaceOnUse" style="mask-type:luminance"><path fill="#fff" d="M0 0H26V26H0z"/></mask><g mask="url(#mask0_6004_8330)"><path fill="#5196ed" fill-rule="evenodd" d="M0 0V26H26V0H0Z" clip-rule="evenodd"/><mask id="mask1_6004_8330" width="26" height="26" x="0" y="0" maskUnits="userSpaceOnUse" style="mask-type:luminance"><path fill="#fff" fill-rule="evenodd" d="M0 0V26H26V0H0Z" clip-rule="evenodd"/></mask><g mask="url(#mask1_6004_8330)"><path fill="#435aba" d="M26 12.4583C26 22.0321 20.1798 29.7917 13 29.7917C5.82019 29.7917 0 22.0314 0 12.4583C0 2.886 5.82019 -4.875 13 -4.875C20.1798 -4.875 26 2.886 26 12.4583Z"/><path fill="#4faf9a" d="M25.92 10.549C25.817 11.681 25.682 12.804 25.517 13.925 25.478 14.182 25.436 14.445 25.332 14.668 24.996 15.396 24.083 15.58 24.007 16.43 23.946 17.084 24.45 17.838 24.114 18.32 23.912 18.607 23.509 18.567 23.369 18.913 23.315 19.044 23.315 19.201 23.274 19.34 23.234 19.474 23.119 19.601 23.018 19.533 23.125 19.837 23.049 20.202 22.898 20.467 22.747 20.728 22.53 20.908 22.318 21.084 21.876 21.449 21.293 21.812 20.872 21.397 20.592 21.121 20.525 20.61 20.478 20.15 20.383 19.228 20.287 18.301 20.315 17.372 20.329 16.905 20.369 16.412 20.204 16.004 20.1 15.75 19.928 15.56 19.819 15.314 19.711 15.071 19.682 14.712 19.848 14.53 19.909 14.462 19.991 14.424 20.027 14.335 20.097 14.163 19.957 13.965 19.82 13.895 19.203 13.569 18.511 14.159 17.859 14.002 17.15 13.831 16.73 12.856 16.501 11.945 16.408 11.568 16.33 11.156 16.419 10.78 16.487 10.499 16.638 10.275 16.786 10.059 17.24 9.393 17.691 8.729 18.145 8.064 17.89 7.989 17.717 7.645 17.675 7.302 17.636 6.956 17.7 6.604 17.764 6.268H18.775C18.708 5.838 18.64 5.405 18.573 4.975 18.954 4.86 19.35 4.736 19.661 4.419 19.971 4.105 20.175 3.538 20.033 3.051 19.938 2.719 19.694 2.417 19.776 2.076 19.876 1.647 20.406 1.647 20.537 1.229 20.578 1.091 20.571.93 20.613.792 20.691.546 20.907.453 21.086.337 21.263.221 21.451-.014 21.389-.268L21.363-.261C21.434-.365 21.504-.47 21.579-.563 23.951 2.217 25.559 6.135 25.92 10.549ZM17.566-3.772C17.535-3.679 17.499-3.593 17.448-3.511 17.275-3.22 17.006-3.051 16.834-2.757 16.504-2.174 16.647-1.278 16.305-.703 15.862.048 14.938-.229 14.328.272 13.924.601 13.707 1.283 13.81 1.9 13.633 2.106 13.347 1.99 13.174 1.781 12.998 1.572 12.883 1.284 12.697 1.09 12.471.847 12.143.751 12.003.407 11.728-.258 12.423-1.064 12.224-1.774 11.964-1.778 11.793-2.136 11.712-2.468 11.633-2.797 11.58-3.176 11.376-3.386 11.031-3.746 10.536-3.417 10.104-3.461 10.012-3.469 9.914-3.506 9.866-3.607 9.816-3.719 9.843-3.862 9.875-3.984 9.908-4.122 9.942-4.26 9.973-4.398H9.976C10.945-4.709 11.959-4.872 13.001-4.872 14.608-4.874 16.146-4.486 17.566-3.772ZM13.793 15.911C13.729 16.445 13.303 16.774 13.163 17.282 13.017 17.793 13.121 18.548 12.74 18.753 12.589 18.832 12.421 18.779 12.261 18.82 11.754 18.951 11.659 19.866 11.3 20.363 11.177 20.531 11.023 20.651 10.869 20.77 10.572 20.997 10.275 21.225 9.975 21.453 9.525 21.797 9.018 22.26 9.001 22.951 8.998 23.085 9.012 23.219 9.006 23.35 9.001 23.544 8.951 23.726 8.901 23.906 8.763 24.403 8.623 24.904 8.485 25.404 8.335 25.464 8.192 25.266 8.144 25.064 8.099 24.863 8.108 24.642 8.041 24.452 7.984 24.294 7.881 24.175 7.814 24.026 7.665 23.693 7.702 23.275 7.75 22.89 7.949 21.236 8.2 19.593 8.506 17.965 8.548 17.749 8.584 17.502 8.486 17.323 8.428 17.207 8.327 17.146 8.246 17.065 7.94 16.748 7.918 16.158 7.756 15.687 7.576 15.172 7.198 14.702 7.288 14.145 7.349 13.779 7.613 13.488 7.605 13.113 7.591 12.617 7.151 12.397 6.851 12.105 6.591 11.852 6.4 11.478 6.117 11.277 5.933 11.15 5.722 11.105 5.521 11.03 4.84 10.779 4.238 10.171 3.876 9.364 3.767 9.122 3.664 8.841 3.471 8.726 3.353 8.651 3.218 8.651 3.096 8.599 2.533 8.356 2.527 7.273 2.137 6.675 2.042 6.53 1.925 6.414 1.835 6.265 1.703 6.04 1.644 5.753 1.599 5.476 1.543 5.126 1.504 4.767 1.484 4.412 2.602 1.567 4.299-.812 6.366-2.448 6.537-2.227 6.711-2.008 6.881-1.787 7.069-1.545 7.339-1.287 7.568-1.455 7.644-1.511 7.699-1.604 7.772-1.663 7.963-1.817 8.254-1.634 8.284-1.339 8.316-1.044 8.074-.761 7.859-.839 7.875-.447 8.1-.085 8.383.012 8.002.427 7.445-.148 6.955-.077 6.442-.002 6.153.953 6.478 1.48 6.823 2.037 7.568 1.999 7.806 2.649 7.859 2.795 7.878 2.963 7.952 3.097 8.022 3.227 8.181 3.303 8.265 3.186 8.249 2.458 8.299 1.73 8.419 1.02 8.441.882 8.475.733 8.562.655 8.632.599 8.719.594 8.8.606 9.307.678 9.758 1.226 9.853 1.894 10.004 1.73 10.105 1.487 10.13 1.229 10.548 2.025 11.021 2.773 11.54 3.451 11.304 3.702 10.974 3.732 10.708 3.922 10.405 4.142 10.215 4.553 10.021 4.933 9.464 6.031 8.777 7.018 8 7.845 7.907 7.947 7.806 8.048 7.758 8.198 7.663 8.492 7.798 8.899 7.627 9.13 7.26 8.342 6.445 7.988 5.801 8.335 5.692 8.395 5.586 8.472 5.507 8.589 5.247 8.981 5.417 9.65 5.742 9.937 6.07 10.227 6.484 10.248 6.877 10.254 6.762 10.784 7.062 11.345 7.437 11.573 7.815 11.797 8.244 11.774 8.658 11.752 9.07 11.73 9.504 11.718 9.871 11.965 10.086 12.11 10.263 12.331 10.445 12.539 11.092 13.282 11.829 13.885 12.618 14.317 12.899 14.474 13.19 14.608 13.428 14.858 13.664 15.116 13.843 15.512 13.793 15.911Z"/></g></g></g><defs><clipPath id="clip0_6004_8330"><rect width="26" height="26" fill="#fff" rx="13"/></clipPath></defs></svg>