<svg xmlns="http://www.w3.org/2000/svg" width="57" height="58" fill="none" viewBox="0 0 57 58"><mask id="mask0_6004_3095" width="51" height="52" x="3" y="3" maskUnits="userSpaceOnUse" style="mask-type:luminance"><path fill="#fff" stroke="#fff" stroke-width="2.5" d="M52.25 53V5H4.25V53H52.25Z"/></mask><g stroke="#18a2d4" stroke-linecap="round" stroke-linejoin="round" stroke-miterlimit="10" stroke-width="2.5" mask="url(#mask0_6004_3095)"><path d="M48.1273 16.8813C50.284 20.4113 51.5269 24.5604 51.5269 29C51.5269 41.8557 41.1052 52.2773 28.2495 52.2773C15.3937 52.2773 4.97217 41.8557 4.97217 29C4.97217 16.1443 15.3937 5.72265 28.2495 5.72265C32.6891 5.72265 36.8382 6.96552 40.3682 9.12223"/><path d="M41.833 29C41.833 36.502 35.751 42.584 28.249 42.584 20.748 42.584 14.666 36.502 14.666 29 14.666 21.498 20.748 15.417 28.249 15.417M36.009 21.241 28.25 29M43.768 5.723 36.009 13.482V21.241H43.768L51.527 13.482H43.768V5.723Z"/></g></svg>