<svg xmlns="http://www.w3.org/2000/svg" width="57" height="58" fill="none" viewBox="0 0 57 58"><path stroke="#fab600" stroke-linecap="round" stroke-linejoin="round" stroke-miterlimit="10" stroke-width="2.5" d="M5.108 45.773C3.213 41.371 2.499 36.341 3.364 31.081 5.205 19.9 14.122 11.03 25.374 9.691 41.16 7.811 54.133 20.09 54.133 35.5 54.133 39.292 53.322 42.893 51.863 46.142 51.197 47.625 49.632 48.5 48.005 48.5H9.155C7.378 48.5 5.811 47.405 5.108 45.773ZM7.333 35.5H3.014M54.133 35.5H49.814M46.834 17.24 43.899 20.175M28.574 9.507V13.826M10.307 17.233 13.248 20.175"/><path stroke="#fab600" stroke-linecap="round" stroke-linejoin="round" stroke-miterlimit="10" stroke-width="2.5" d="M28.567 39.833C30.96 39.833 32.9 37.893 32.9 35.5 32.9 33.107 30.96 31.167 28.567 31.167 26.174 31.167 24.233 33.107 24.233 35.5 24.233 37.893 26.174 39.833 28.567 39.833ZM37.755 26.312 31.631 32.436"/></svg>