<svg xmlns="http://www.w3.org/2000/svg" width="144" height="37" fill="none" viewBox="0 0 144 37"><g fill="#fff" clip-path="url(#clip0_6004_7509)"><path d="M13.115 19.297H8.201L10.814 10.761 13.111 19.297H13.115ZM5.652 28.707 7.326 23.099H13.946L15.516 28.707H21.65L15.556 7.309C15.206 6.045 14.44 5.462 13.111 5.462H4.435V7.482H5.166C6.073 7.482 6.563 7.835 6.563 8.529 6.563 8.983 6.462 9.365 6.102 10.409L0 28.707H5.652ZM28.721 28.707V7.244C28.721 6.125 28.066 5.462 26.982 5.462H21.618V7.482H21.967C22.871 7.482 23.252 7.867 23.252 8.778V28.707H28.721ZM38.023 28.707V7.244C38.023 6.125 37.357 5.462 36.281 5.462H30.917V7.482H31.259C32.17 7.482 32.551 7.867 32.551 8.778V28.707H38.023ZM47.567 7.583C47.567 6.024 46.415 5.081 44.431 5.081 42.448 5.081 41.289 6.024 41.289 7.583 41.289 9.141 42.48 10.095 44.431 10.095 46.383 10.095 47.567 9.163 47.567 7.583ZM47.463 28.707V13.058C47.463 11.942 46.797 11.283 45.717 11.283H40.421V13.267H40.734C41.641 13.267 42.023 13.685 42.023 14.592V28.707H47.466 47.463ZM59.443 20.341V23.729C58.532 24.672 57.424 25.233 56.484 25.233 55.544 25.233 55.159 24.751 55.159 23.444 55.159 22.137 55.433 21.569 56.408 21.187 57.139 20.87 58.082 20.593 59.443 20.337M52.085 16.273C53.899 15.402 55.886 14.912 57.452 14.912 58.921 14.912 59.443 15.434 59.443 16.961V17.349C57.215 17.702 56.516 17.846 55.26 18.123 54.536 18.293 53.863 18.501 53.201 18.782 51.001 19.664 49.964 21.363 49.964 23.973 49.964 27.285 51.39 28.884 54.353 28.884 55.433 28.884 56.412 28.679 57.283 28.333 58.046 27.995 58.5 27.707 59.62 26.835V27.077C59.62 28.157 60.174 28.711 61.258 28.711H66.24V26.835H65.995C65.056 26.835 64.71 26.414 64.71 25.302V17.004C64.71 12.579 63.176 11.039 58.745 11.039 57.319 11.039 55.926 11.219 54.569 11.532 53.204 11.841 52.502 12.122 50.875 12.925L52.085 16.273ZM74.178 28.707V16.928C75.089 15.917 76.025 15.459 77.108 15.459 78.264 15.459 78.538 15.917 78.538 17.666V28.707H83.974V16.86C83.974 14.102 83.772 13.231 82.897 12.295 82.163 11.489 81.05 11.075 79.614 11.075 77.486 11.075 75.989 11.733 73.976 13.616V12.921C73.976 11.838 73.411 11.283 72.295 11.283H67.133V13.267H67.446C68.353 13.267 68.738 13.685 68.738 14.592V28.707H74.174 74.178ZM100.105 25.05H92.506L99.756 14.88V11.283H88.398C87.109 11.283 86.515 11.874 86.515 13.166V16.33H88.535V16.021C88.535 15.222 88.953 14.836 89.82 14.836H93.73L86.411 25.122V28.707H100.109V25.05H100.105ZM128.642 28.265V8.569C128.642 6.999 128.084 6.47 126.561 6.47H121.953V8.67H122.227C123.278 8.67 123.483 8.907 123.483 10.175V28.265H128.642ZM130.917 28.265H136.037V12.925C136.037 11.384 135.443 10.83 133.941 10.83H130.917V28.265ZM121.223 28.265V10.83H118.188C116.687 10.83 116.1 11.384 116.1 12.925V28.265H121.223ZM140.882 18.253C140.882 26.933 134.643 33.243 126.068 33.243 117.493 33.243 111.251 26.933 111.251 18.253 111.251 9.573 117.493 3.262 126.068 3.262 134.643 3.262 140.882 9.613 140.882 18.253ZM143.913 18.253C143.913 8.047 136.278.404 126.068.404 115.859.404 108.219 8.047 108.219 18.253 108.219 28.459 115.851 36.098 126.068 36.098 136.285 36.098 143.913 28.473 143.913 18.253Z"/></g><defs><clipPath id="clip0_6004_7509"><path fill="#fff" d="M0 0H144V36H0z" transform="translate(0 .404)"/></clipPath></defs></svg>