<svg xmlns="http://www.w3.org/2000/svg" width="20" height="20" fill="none" viewBox="0 0 20 20"><path fill="#003781" d="M11.3506 13.9465L8.05144 12.1469C7.47791 12.7598 6.66176 13.1428 5.75614 13.1428C4.02039 13.1428 2.61328 11.7357 2.61328 9.99996C2.61328 8.26421 4.02039 6.85711 5.75614 6.85711C6.66171 6.85711 7.47783 7.24011 8.05135 7.85297L11.3506 6.05342C11.2889 5.80772 11.2561 5.55052 11.2561 5.28568C11.2561 3.54993 12.6633 2.14282 14.399 2.14282C16.1347 2.14282 17.5419 3.54993 17.5419 5.28568C17.5419 7.02143 16.1347 8.42854 14.399 8.42854C13.4934 8.42854 12.6773 8.04551 12.1037 7.43261L8.80453 9.23217C8.86623 9.47786 8.899 9.7351 8.899 9.99996C8.899 10.2648 8.86624 10.522 8.80456 10.7677L12.1038 12.5673C12.6773 11.9544 13.4934 11.5714 14.399 11.5714C16.1347 11.5714 17.5419 12.9785 17.5419 14.7143C17.5419 16.45 16.1347 17.8571 14.399 17.8571C12.6633 17.8571 11.2561 16.45 11.2561 14.7143C11.2561 14.4494 11.2889 14.1921 11.3506 13.9465ZM5.75614 11.5714C6.62401 11.5714 7.32757 10.8679 7.32757 9.99996C7.32757 9.13206 6.62401 8.42854 5.75614 8.42854C4.88826 8.42854 4.18471 9.13206 4.18471 9.99996C4.18471 10.8679 4.88826 11.5714 5.75614 11.5714ZM14.399 6.85711C15.2669 6.85711 15.9704 6.15356 15.9704 5.28568C15.9704 4.4178 15.2669 3.71425 14.399 3.71425C13.5311 3.71425 12.8276 4.4178 12.8276 5.28568C12.8276 6.15356 13.5311 6.85711 14.399 6.85711ZM14.399 16.2857C15.2669 16.2857 15.9704 15.5822 15.9704 14.7143C15.9704 13.8464 15.2669 13.1428 14.399 13.1428C13.5311 13.1428 12.8276 13.8464 12.8276 14.7143C12.8276 15.5822 13.5311 16.2857 14.399 16.2857Z"/></svg>